<?xml version="1.0" encoding="utf-8"?>
<!-- Generator: Adobe Illustrator 25.2.1, SVG Export Plug-In . SVG Version: 6.00 Build 0)  -->
<svg version="1.1" id="Layer_2_1_" xmlns="http://www.w3.org/2000/svg" xmlns:xlink="http://www.w3.org/1999/xlink" x="0px" y="0px"
	 viewBox="0 0 662 662" style="enable-background:new 0 0 662 662;" xml:space="preserve">
<style type="text/css">
	.st0{fill:#61DAFB;}
</style>
<g>
	<path class="st0" d="M662,331c0-43.9-54.9-85.4-139.1-111.2c19.4-85.8,10.8-154.1-27.3-176c-8.8-5.1-19-7.6-30.2-7.6v30.1
		c6.2,0,11.2,1.2,15.4,3.5c18.4,10.5,26.3,50.6,20.1,102.1c-1.5,12.7-3.9,26-6.9,39.7c-26.4-6.5-55.3-11.5-85.7-14.7
		c-18.2-25-37.1-47.6-56.1-67.5c44-40.9,85.3-63.3,113.3-63.3V36.2l0,0c-37.1,0-85.7,26.4-134.8,72.3
		C281.6,62.9,233,36.7,195.9,36.7v30.1c27.9,0,69.4,22.3,113.3,62.9c-18.9,19.8-37.8,42.4-55.7,67.3c-30.5,3.2-59.4,8.2-85.8,14.8
		c-3.1-13.5-5.4-26.6-7-39.1c-6.3-51.5,1.5-91.6,19.7-102.3c4-2.4,9.3-3.5,15.5-3.5v-30l0,0c-11.3,0-21.6,2.4-30.5,7.6
		c-37.9,21.9-46.4,90-26.9,175.6C54.6,245.9,0,287.3,0,331c0,43.9,54.9,85.4,139.1,111.2c-19.4,85.8-10.8,154.1,27.3,176
		c8.8,5.1,19,7.6,30.4,7.6c37.1,0,85.7-26.4,134.8-72.3c49.1,45.6,97.7,71.8,134.8,71.8c11.3,0,21.6-2.4,30.5-7.6
		c37.9-21.9,46.4-90,26.9-175.6C607.3,416.3,662,374.7,662,331z M486.3,241c-5,17.4-11.2,35.4-18.2,53.3
		c-5.5-10.8-11.3-21.6-17.7-32.4c-6.2-10.8-12.8-21.3-19.4-31.6C450.1,233.2,468.6,236.7,486.3,241z M424.5,384.7
		c-10.5,18.2-21.3,35.5-32.5,51.5c-20.1,1.8-40.5,2.7-61,2.7c-20.4,0-40.8-0.9-60.7-2.6c-11.2-16.1-22.1-33.2-32.7-51.3
		c-10.3-17.7-19.6-35.6-28.1-53.7c8.4-18.1,17.8-36.2,27.9-53.8c10.5-18.2,21.3-35.5,32.5-51.5c20.1-1.8,40.5-2.7,61-2.7
		c20.4,0,40.8,0.9,60.7,2.6c11.2,16.1,22.1,33.2,32.7,51.3c10.3,17.7,19.6,35.6,28.1,53.7C443.9,349,434.6,367,424.5,384.7z
		 M468.1,367.2c7.3,18.1,13.5,36.2,18.6,53.7c-17.7,4.3-36.3,8-55.6,10.8c6.6-10.4,13.2-21.1,19.4-32
		C456.7,388.9,462.5,378,468.1,367.2z M331.2,511.2c-12.5-13-25.1-27.4-37.5-43.2c12.1,0.5,24.6,0.9,37.1,0.9
		c12.7,0,25.2-0.3,37.5-0.9C356.2,483.8,343.6,498.2,331.2,511.2z M230.8,431.7c-19.2-2.8-37.6-6.3-55.3-10.7
		c5-17.4,11.2-35.4,18.2-53.3c5.5,10.8,11.3,21.6,17.7,32.4C217.7,410.9,224.2,421.4,230.8,431.7z M330.6,150.9
		c12.5,13,25.1,27.4,37.5,43.2c-12.1-0.5-24.6-0.9-37.1-0.9c-12.7,0-25.2,0.3-37.5,0.9C305.6,178.3,318.1,163.8,330.6,150.9z
		 M230.7,230.4c-6.6,10.4-13.2,21.1-19.4,32c-6.2,10.8-12,21.6-17.5,32.4c-7.3-18.1-13.5-36.2-18.6-53.7
		C192.8,236.8,211.4,233.2,230.7,230.4z M108.6,399.3c-47.8-20.4-78.7-47.1-78.7-68.3s30.9-48,78.7-68.3c11.6-5,24.3-9.4,37.4-13.6
		c7.7,26.4,17.8,54,30.4,82.2c-12.4,28.1-22.4,55.5-30,81.8C133,408.9,120.3,404.3,108.6,399.3z M181.2,592.1
		c-18.4-10.5-26.3-50.6-20.1-102.1c1.5-12.7,3.9-26,6.9-39.7c26.4,6.5,55.3,11.5,85.7,14.7c18.2,25,37.1,47.6,56.1,67.5
		c-44,40.9-85.3,63.3-113.3,63.3C190.4,595.6,185.2,594.4,181.2,592.1z M501.2,489.3c6.3,51.5-1.5,91.6-19.7,102.3
		c-4,2.4-9.3,3.5-15.5,3.5c-27.9,0-69.4-22.3-113.3-62.9c18.9-19.8,37.8-42.4,55.7-67.3c30.5-3.2,59.4-8.2,85.8-14.8
		C497.3,463.7,499.8,476.7,501.2,489.3z M553.2,399.3c-11.6,5-24.3,9.4-37.4,13.6c-7.7-26.4-17.8-54-30.4-82.2
		c12.4-28.1,22.4-55.5,30-81.8c13.4,4.2,26,8.8,37.9,13.8c47.8,20.4,78.7,47.1,78.7,68.3C631.9,352.2,601,379.1,553.2,399.3z"/>
	<path class="st0" d="M195.7,36.7L195.7,36.7L195.7,36.7z"/>
	<circle class="st0" cx="330.8" cy="331" r="61.7"/>
	<path class="st0" d="M465.2,36.3L465.2,36.3L465.2,36.3z"/>
</g>
</svg>
