<?xml version="1.0" encoding="utf-8"?>
<!-- Generator: Adobe Illustrator 25.2.1, SVG Export Plug-In . SVG Version: 6.00 Build 0)  -->
<svg version="1.1"
	 id="svg4" xmlns:cc="http://creativecommons.org/ns#" xmlns:dc="http://purl.org/dc/elements/1.1/" xmlns:rdf="http://www.w3.org/1999/02/22-rdf-syntax-ns#" xmlns:svg="http://www.w3.org/2000/svg"
	 xmlns="http://www.w3.org/2000/svg" xmlns:xlink="http://www.w3.org/1999/xlink" x="0px" y="0px" viewBox="0 0 100 100"
	 style="enable-background:new 0 0 100 100;" xml:space="preserve">
<style type="text/css">
	.st0{fill:#FFFFFF;}
	.st1{fill:#110B09;}
</style>
<polygon class="st0" points="42.8,77.9 14.3,50.4 43.2,22.1 82,12.3 92.8,50 80.9,86.5 "/>
<path id="path2" class="st1" d="M83,80L65.1,50L83,19.9L91.6,50L83,80z M43.2,77.1L20.8,54.8h35.8l17.9,30.1L43.2,77.1z M43.2,22.7
	l31.1-7.8L56.4,45H20.7L43.2,22.7z M88.9,0.2L48.3,10.7l-6,10.4L30,21L0.2,50L30,79l12.2-0.1l6,10.4l40.6,10.6l10.9-39.5L93.6,50
	l6.1-10.3L88.9,0.2z"/>
</svg>
